<?xml version="1.0" encoding="UTF-8" standalone="no"?>
<svg width="74px" height="42px" viewBox="0 0 74 42" version="1.1" xmlns="http://www.w3.org/2000/svg" xmlns:xlink="http://www.w3.org/1999/xlink">
    <!-- Generator: Sketch 40 (33762) - http://www.bohemiancoding.com/sketch -->
    <title>logo</title>
    <desc>Created with Sketch.</desc>
    <defs></defs>
    <g id="Page-1" stroke="none" stroke-width="1" fill="none" fill-rule="evenodd">
        <g id="Log-In" transform="translate(-149.000000, -120.000000)" fill="#FFFFFF">
            <g id="logo" transform="translate(149.000000, 120.000000)">
                <path d="M39.2871094,40.6347656 C38.759763,40.0878879 38.4960938,39.4335976 38.4960938,38.671875 L38.4960938,14.2675781 C38.4960938,13.5058556 38.759763,12.8613308 39.2871094,12.3339844 C39.8339871,11.806638 40.4882774,11.5429688 41.25,11.5429688 C41.9921912,11.5429688 42.636716,11.806638 43.1835938,12.3339844 C43.7109401,12.8613308 43.9746094,13.5058556 43.9746094,14.2675781 L43.9746094,38.671875 C43.9746094,39.4335976 43.7109401,40.0878879 43.1835938,40.6347656 C42.636716,41.162112 41.9921912,41.4257812 41.25,41.4257812 C40.4882774,41.4257812 39.8339871,41.162112 39.2871094,40.6347656 L39.2871094,40.6347656 Z" id="Path"></path>
                <path d="M41.25,8.87695312 C40.3906207,8.87695312 39.6582062,8.57422178 39.0527344,7.96875 C38.4472626,7.36327822 38.1445312,6.6406292 38.1445312,5.80078125 C38.1445312,4.94140195 38.4472626,4.2089874 39.0527344,3.60351562 C39.6582062,2.99804385 40.3906207,2.6953125 41.25,2.6953125 C42.0898479,2.6953125 42.812497,2.99804385 43.4179688,3.60351562 C44.0234405,4.2089874 44.3261719,4.94140195 44.3261719,5.80078125 C44.3261719,6.6406292 44.0234405,7.36327822 43.4179688,7.96875 C42.812497,8.57422178 42.0898479,8.87695312 41.25,8.87695312 Z" id="trid"></path>
                <path d="M31.2597656,11.5429688 C28.7792845,11.5429688 26.5234477,12.2363212 24.4921875,13.6230469 C24.3359367,12.9980438 24.0136743,12.4902363 23.5253906,12.0996094 C23.0371069,11.6894511 22.4707063,11.484375 21.8261719,11.484375 C21.0644493,11.484375 20.410159,11.7578098 19.8632812,12.3046875 C19.3359349,12.8320339 19.0722656,13.4765587 19.0722656,14.2382812 L19.0722656,38.671875 C19.0722656,39.4335976 19.3359349,40.0878879 19.8632812,40.6347656 C20.410159,41.162112 21.0644493,41.4257812 21.8261719,41.4257812 C22.5683631,41.4257812 23.2128879,41.162112 23.7597656,40.6347656 C24.287112,40.0878879 24.5507812,39.4335976 24.5507812,38.671875 L24.5507812,23.7304688 C24.5507812,21.8945221 25.2050716,20.3222722 26.5136719,19.0136719 C27.8222722,17.6855402 29.4042876,17.0214844 31.2597656,17.0214844 L31.2890625,17.0214844 C32.0507851,17.0214844 32.6953099,16.7578151 33.2226562,16.2304688 C33.769534,15.7031224 34.0429688,15.0585976 34.0429688,14.296875 C34.0429688,13.5351524 33.769534,12.8906276 33.2226562,12.3632812 C32.6953099,11.8164035 32.0507851,11.5429688 31.2890625,11.5429688 L31.2597656,11.5429688 Z" id="Path"></path>
                <path d="M12.1875,35.9472656 C10.332022,35.9472656 8.75000654,35.2929753 7.44140625,33.984375 C6.13280596,32.6757747 5.47851562,31.0937593 5.47851562,29.2382812 L5.47851562,17.4023438 L9.90234375,17.4023438 C10.6640663,17.4023438 11.3085911,17.128909 11.8359375,16.5820312 C12.3828152,16.0546849 12.65625,15.4101601 12.65625,14.6484375 C12.65625,13.8867149 12.3828152,13.2421901 11.8359375,12.7148438 C11.3085911,12.1874974 10.6640663,11.9238281 9.90234375,11.9238281 L5.47851562,11.9238281 L5.47851562,2.84179688 C5.47851562,2.09960566 5.21484639,1.45508086 4.6875,0.908203125 C4.14062227,0.380856738 3.49609746,0.1171875 2.75390625,0.1171875 C1.99218369,0.1171875 1.33789336,0.380856738 0.791015625,0.908203125 C0.263669238,1.45508086 0,2.09960566 0,2.84179688 L0,29.2382812 C0,32.597673 1.19139434,35.4687381 3.57421875,37.8515625 C5.95704316,40.2343869 8.8281082,41.4257812 12.1875,41.4257812 L12.2167969,41.4257812 C12.9785194,41.4257812 13.6230442,41.162112 14.1503906,40.6347656 C14.6972684,40.0878879 14.9707031,39.4335976 14.9707031,38.671875 C14.9707031,37.9296838 14.6972684,37.285159 14.1503906,36.7382812 C13.6230442,36.2109349 12.9785194,35.9472656 12.2167969,35.9472656 L12.1875,35.9472656 Z" id="Path"></path>
                <path d="M68.90625,0.791015625 C68.3789036,1.33789336 68.1152344,1.98241816 68.1152344,2.72460938 L68.1152344,13.4765625 C66.0644429,12.1288995 63.8281371,11.4550781 61.40625,11.4550781 L61.2011719,11.4550781 C57.8417801,11.4550781 54.970715,12.6464725 52.5878906,15.0292969 C50.2050662,17.4121213 49.0136719,20.2831863 49.0136719,23.6425781 L49.0136719,29.2382812 C49.0136719,32.597673 50.2050662,35.4687381 52.5878906,37.8515625 C54.970715,40.2343869 57.8417801,41.4257812 61.2011719,41.4257812 L61.40625,41.4257812 C63.8867312,41.4257812 66.1523335,40.7324288 68.203125,39.3457031 C68.5351579,40.7324288 69.4140554,41.4257812 70.8398438,41.4257812 C71.6015663,41.4257812 72.2460911,41.162112 72.7734375,40.6347656 C73.3203152,40.0878879 73.59375,39.4335976 73.59375,38.671875 L73.59375,2.72460938 C73.59375,1.98241816 73.3203152,1.33789336 72.7734375,0.791015625 C72.2460911,0.263669238 71.6015663,0 70.8398438,0 C70.0781212,0 69.4335964,0.263669238 68.90625,0.791015625 Z M68.1152344,29.2382812 C68.1152344,31.0937593 67.4511785,32.6757747 66.1230469,33.984375 C64.8144466,35.2929753 63.2421967,35.9472656 61.40625,35.9472656 L61.2011719,35.9472656 C59.3456938,35.9472656 57.7636784,35.2929753 56.4550781,33.984375 C55.1464778,32.6757747 54.4921875,31.0937593 54.4921875,29.2382812 L54.4921875,23.6425781 C54.4921875,21.7871001 55.1464778,20.2050847 56.4550781,18.8964844 C57.7636784,17.5878841 59.3456938,16.9335938 61.2011719,16.9335938 L61.40625,16.9335938 C63.2421967,16.9335938 64.8144466,17.5878841 66.1230469,18.8964844 C67.4511785,20.2050847 68.1152344,21.7871001 68.1152344,23.6425781 L68.1152344,29.2382812 Z" id="Combined-Shape"></path>
            </g>
        </g>
    </g>
</svg>